<svg width="14" height="30" viewBox="0 0 14 30" fill="none" xmlns="http://www.w3.org/2000/svg">
<path fill-rule="evenodd" clip-rule="evenodd" d="M7 0C3.13401 0 0 3.13401 0 7V16C0 19.866 3.13401 23 7 23C10.866 23 14 19.866 14 16V7C14 3.13401 10.866 0 7 0ZM7 1C3.68629 1 1 3.68629 1 7V16C1 19.3137 3.68629 22 7 22C10.3137 22 13 19.3137 13 16V7C13 3.68629 10.3137 1 7 1Z" fill="white"/>
<path d="M9.95452 25.1023L7.00001 28.0568L4.04551 25.1023C3.82584 24.8826 3.46968 24.8826 3.25001 25.1023C3.03034 25.3219 3.03034 25.6781 3.25001 25.8978L6.29291 28.9407C6.68343 29.3312 7.31659 29.3312 7.70712 28.9407L10.75 25.8978C10.9697 25.6781 10.9697 25.3219 10.75 25.1023C10.5303 24.8826 10.1742 24.8826 9.95452 25.1023Z" fill="white"/>
<rect x="6" y="4" width="2" height="4" rx="1" fill="white"/>
</svg>
