<?xml version="1.0" encoding="UTF-8"?><svg xmlns="http://www.w3.org/2000/svg" viewBox="0 0 295.32 86.39"><defs><style>.d{fill:#f39d22;}.e{fill:#ee6124;}.f{fill:#e72328;}</style></defs><g id="a"/><g id="b"><g id="c"><g><g><path d="M25.12,12.14l22.12,59.26-5.17,13.22h-1.68C25.72,49.16,11.3,10.34,11.3,10.34,7.93,1.68,4.09,1.56,0,1.56V0H32.22V1.56c-9.86,0-7.45,9.74-7.09,10.58M54.81,0h29.81V1.56c-7.93,0-10.82-.12-21.76,28.73l-1.44-.48c3.73-11.18,10.7-28.25-6.61-28.25V0Z"/><path d="M66.33,84.47h-16.04v-.78c2.67,0,5.35-.26,5.35-5.09v-31.09c0-4.76-3.59-2.48-6-.59l-.52-.72,10.04-8.21h2.15v40.61c0,5.02,2.74,5.09,5.02,5.09v.78Z"/></g><g><path d="M100.11,43.01c-.28,1.49-.97,2.66-2.07,3.51-1.1,.85-2.44,1.28-4.02,1.28-1.79,0-3.3-.61-4.55-1.82-1.24-1.21-1.86-2.71-1.86-4.48s.62-3.26,1.86-4.47c1.24-1.22,2.76-1.83,4.55-1.83,1.51,0,2.83,.42,3.95,1.26,1.12,.84,1.83,1.96,2.12,3.37l-2.92,.68c-.18-.85-.55-1.5-1.11-1.94-.56-.44-1.24-.66-2.04-.66-.96,0-1.77,.34-2.44,1.03-.67,.68-1,1.54-1,2.56s.33,1.88,1,2.57c.67,.69,1.48,1.04,2.44,1.04,.79,0,1.47-.23,2.03-.68,.56-.45,.94-1.11,1.14-1.99l2.92,.58Z"/><path d="M108.98,39.59c.96,.89,1.44,2.03,1.44,3.42s-.48,2.55-1.44,3.44c-.96,.89-2.13,1.33-3.51,1.33s-2.59-.44-3.56-1.33-1.45-2.03-1.45-3.44,.48-2.53,1.45-3.42c.97-.89,2.15-1.33,3.56-1.33s2.55,.44,3.51,1.33Zm-1.98,5.1c.43-.44,.65-1,.65-1.68s-.22-1.25-.66-1.68c-.44-.44-.95-.66-1.52-.66s-1.12,.22-1.57,.66c-.44,.44-.67,1-.67,1.68s.22,1.25,.66,1.68c.44,.44,.96,.66,1.58,.66s1.1-.22,1.53-.66Z"/><path d="M125.36,39.24c.66,.68,.99,1.56,.99,2.64v5.65h-2.86v-5.04c0-.5-.14-.91-.43-1.22s-.65-.46-1.08-.46c-.54,0-.97,.2-1.29,.59-.32,.39-.48,.96-.48,1.7v4.43h-2.88v-5.04c0-.5-.14-.91-.43-1.22s-.65-.46-1.1-.46c-.54,0-.96,.2-1.27,.59s-.46,.96-.46,1.7v4.43h-2.88v-9.04h2.88v.83c.66-.73,1.55-1.1,2.66-1.1,1.33,0,2.32,.51,2.95,1.53,.78-1.02,1.85-1.53,3.21-1.53,.98,0,1.81,.34,2.47,1.02Z"/><path d="M141.76,39.24c.66,.68,.99,1.56,.99,2.64v5.65h-2.86v-5.04c0-.5-.14-.91-.43-1.22s-.65-.46-1.08-.46c-.54,0-.97,.2-1.29,.59-.32,.39-.48,.96-.48,1.7v4.43h-2.88v-5.04c0-.5-.14-.91-.43-1.22s-.65-.46-1.1-.46c-.54,0-.96,.2-1.27,.59s-.46,.96-.46,1.7v4.43h-2.88v-9.04h2.88v.83c.66-.73,1.55-1.1,2.66-1.1,1.33,0,2.32,.51,2.95,1.53,.78-1.02,1.85-1.53,3.21-1.53,.98,0,1.81,.34,2.47,1.02Z"/><path d="M152.85,43.75h-6.63c.12,.54,.35,.97,.7,1.28,.35,.31,.76,.47,1.24,.47,.9,0,1.54-.35,1.93-1.04l2.56,.52c-.38,.94-.96,1.64-1.74,2.12-.77,.47-1.69,.71-2.75,.71-1.33,0-2.46-.45-3.39-1.34s-1.39-2.04-1.39-3.45,.46-2.54,1.39-3.44c.92-.9,2.06-1.35,3.4-1.35s2.41,.44,3.29,1.31,1.34,2.03,1.37,3.48v.74Zm-5.83-2.81c-.36,.25-.61,.6-.74,1.04h3.73c-.13-.47-.36-.82-.68-1.06-.32-.24-.7-.36-1.13-.36s-.81,.13-1.17,.38Z"/><path d="M160.26,38.44l-.13,2.88h-.52c-2.08,0-3.11,1.13-3.11,3.39v2.83h-2.88v-9.04h2.88v1.73c.74-1.24,1.78-1.85,3.11-1.85,.24,0,.46,.02,.65,.07Z"/><path d="M167.01,43.69l2.65,.58c-.23,1.06-.77,1.91-1.62,2.56-.85,.65-1.85,.97-2.99,.97-1.38,0-2.55-.45-3.5-1.34-.95-.89-1.43-2.04-1.43-3.45s.48-2.54,1.43-3.44c.95-.9,2.12-1.35,3.5-1.35,1.12,0,2.1,.32,2.95,.95,.85,.64,1.4,1.48,1.66,2.52l-2.7,.65c-.12-.53-.35-.93-.68-1.2-.34-.27-.74-.41-1.22-.41-.65,0-1.17,.21-1.57,.64-.4,.43-.59,.97-.59,1.63s.2,1.22,.59,1.64c.4,.42,.92,.63,1.57,.63,1.01,0,1.66-.53,1.96-1.58Z"/><path d="M173.21,34.67c.32,.32,.48,.71,.48,1.15s-.16,.84-.48,1.14c-.32,.31-.72,.46-1.2,.46s-.88-.15-1.19-.46c-.31-.31-.47-.69-.47-1.14s.16-.84,.47-1.16,.71-.48,1.19-.48,.88,.16,1.2,.49Zm-2.64,12.86v-9.04h2.88v9.04h-2.88Z"/><path d="M184.47,47.53h-2.88v-.72c-.73,.66-1.67,.99-2.81,.99-1.22,0-2.27-.45-3.12-1.34-.86-.89-1.29-2.04-1.29-3.45s.43-2.54,1.29-3.44c.86-.9,1.9-1.35,3.12-1.35,1.14,0,2.08,.33,2.81,.99v-.72h2.88v9.04Zm-3.54-2.84c.44-.44,.66-1,.66-1.68s-.22-1.23-.66-1.67-.96-.67-1.56-.67c-.64,0-1.16,.22-1.57,.66-.41,.44-.61,1-.61,1.68s.2,1.26,.61,1.69,.93,.65,1.57,.65c.6,0,1.12-.22,1.56-.66Z"/><path d="M185.84,47.53v-12.96h2.88v12.96h-2.88Z"/><path d="M205.62,43.01c-.28,1.49-.97,2.66-2.07,3.51-1.1,.85-2.44,1.28-4.02,1.28-1.79,0-3.3-.61-4.55-1.82-1.24-1.21-1.86-2.71-1.86-4.48s.62-3.26,1.86-4.47c1.24-1.22,2.76-1.83,4.55-1.83,1.51,0,2.83,.42,3.95,1.26,1.12,.84,1.83,1.96,2.12,3.37l-2.92,.68c-.18-.85-.55-1.5-1.11-1.94-.56-.44-1.24-.66-2.04-.66-.96,0-1.77,.34-2.44,1.03-.67,.68-1,1.54-1,2.56s.33,1.88,1,2.57c.67,.69,1.48,1.04,2.44,1.04,.79,0,1.47-.23,2.03-.68,.56-.45,.94-1.11,1.14-1.99l2.92,.58Z"/><path d="M216.08,47.53h-2.88v-.72c-.73,.66-1.67,.99-2.81,.99-1.22,0-2.27-.45-3.12-1.34-.86-.89-1.29-2.04-1.29-3.45s.43-2.54,1.29-3.44c.86-.9,1.9-1.35,3.12-1.35,1.14,0,2.08,.33,2.81,.99v-.72h2.88v9.04Zm-3.54-2.84c.44-.44,.66-1,.66-1.68s-.22-1.23-.66-1.67-.96-.67-1.56-.67c-.64,0-1.16,.22-1.57,.66-.41,.44-.61,1-.61,1.68s.2,1.26,.61,1.69,.93,.65,1.57,.65c.6,0,1.12-.22,1.56-.66Z"/><path d="M224.09,38.44l-.13,2.88h-.52c-2.08,0-3.11,1.13-3.11,3.39v2.83h-2.88v-9.04h2.88v1.73c.74-1.24,1.78-1.85,3.11-1.85,.24,0,.46,.02,.65,.07Z"/><path d="M233.97,47.53h-2.88v-.72c-.73,.66-1.67,.99-2.81,.99-1.22,0-2.27-.45-3.12-1.34-.86-.89-1.29-2.04-1.29-3.45s.43-2.54,1.29-3.44c.86-.9,1.9-1.35,3.12-1.35,1.14,0,2.08,.33,2.81,.99v-4.65h2.88v12.96Zm-3.54-2.84c.44-.44,.66-1,.66-1.68s-.22-1.23-.66-1.67-.96-.67-1.56-.67c-.64,0-1.16,.22-1.57,.66-.41,.44-.61,1-.61,1.68s.2,1.26,.61,1.69,.93,.65,1.57,.65c.6,0,1.12-.22,1.56-.66Z"/></g><g><rect class="e" x="98.31" y="63.9" width="11.14" height="19.79"/><path class="f" d="M99.02,73.8c0-3.86,1.79-7.52,4.86-9.9-5.53-4.3-13.53-3.35-17.88,2.12-4.34,5.47-3.39,13.38,2.14,17.68,4.62,3.58,11.12,3.58,15.73,0-3.07-2.39-4.87-6.03-4.86-9.9"/><path class="d" d="M124.48,73.8c0,6.95-5.7,12.59-12.73,12.59-2.85,0-5.62-.95-7.87-2.69,5.53-4.3,6.49-12.21,2.14-17.68-.63-.79-1.35-1.5-2.14-2.12,5.53-4.3,13.53-3.35,17.88,2.11,1.77,2.22,2.72,4.96,2.72,7.78h0Z"/><path d="M293.61,80.17v.35h.33c.06,0,.12-.01,.17-.05,.05-.03,.07-.08,.07-.13,0-.05-.02-.1-.07-.13-.05-.03-.11-.05-.17-.04h-.33Zm.33-.25c.14,0,.28,.03,.4,.11,.09,.08,.14,.19,.14,.31,0,.1-.03,.2-.11,.27-.09,.08-.2,.12-.32,.13l.44,.5h-.34l-.4-.5h-.13v.5h-.28v-1.33h.61Zm-.09,1.79c.15,0,.29-.03,.43-.09,.13-.06,.25-.14,.35-.24,.1-.1,.18-.22,.24-.35,.11-.28,.11-.59,0-.87-.06-.13-.14-.25-.24-.35-.1-.1-.22-.18-.35-.24-.14-.06-.29-.08-.43-.08s-.3,.03-.44,.08c-.13,.06-.26,.14-.36,.24-.32,.33-.41,.81-.24,1.23,.05,.13,.13,.25,.24,.35,.1,.1,.22,.19,.36,.24,.14,.06,.29,.09,.44,.09m0-2.55c.38,0,.76,.15,1.03,.42,.13,.13,.24,.28,.31,.45,.15,.36,.15,.76,0,1.11-.07,.17-.18,.33-.31,.46-.14,.13-.29,.23-.47,.31-.18,.08-.38,.12-.57,.11-.2,0-.4-.04-.58-.11-.17-.07-.33-.18-.47-.31-.13-.14-.24-.3-.31-.47-.15-.36-.15-.76,0-1.12,.07-.17,.18-.33,.31-.46,.13-.13,.29-.24,.47-.31,.18-.08,.38-.12,.58-.11m-134.89-5.13c0-2.54,1.66-4.63,4.38-4.63s4.36,2,4.36,4.63-1.76,4.63-4.36,4.63-4.38-2.09-4.38-4.63m11.71,0v-7.23h-3.14v1.76c-1-1.3-2.51-2.12-4.57-2.12-4.05,0-7.23,3.18-7.23,7.59s3.18,7.59,7.23,7.59c2.06,0,3.57-.82,4.57-2.11v1.75h3.14v-7.23h0Zm106.24,0c0-2.54,1.66-4.63,4.39-4.63s4.35,2,4.35,4.63-1.75,4.63-4.35,4.63-4.39-2.09-4.39-4.63m11.71,0v-13.04h-3.15v7.57c-1-1.3-2.51-2.12-4.57-2.12-4.05,0-7.23,3.18-7.23,7.59s3.18,7.59,7.23,7.59c2.06,0,3.57-.82,4.57-2.11v1.75h3.15v-7.23Zm-78.92-4.78c2.02,0,3.33,1.27,3.66,3.51h-7.5c.33-2.09,1.6-3.51,3.84-3.51m.06-2.82c-4.24,0-7.2,3.08-7.2,7.59s3.08,7.59,7.41,7.59c2.18,0,4.17-.55,5.92-2.03l-1.54-2.33c-1.21,.97-2.76,1.51-4.21,1.51-2.02,0-3.87-.94-4.33-3.54h10.74c.03-.39,.06-.78,.06-1.21-.03-4.51-2.82-7.59-6.87-7.59m37.96,7.59c0-2.54,1.67-4.63,4.39-4.63s4.35,2,4.35,4.63-1.76,4.63-4.35,4.63-4.39-2.09-4.39-4.63m11.71,0v-7.23h-3.14v1.76c-1-1.3-2.51-2.12-4.57-2.12-4.05,0-7.23,3.18-7.23,7.59s3.18,7.59,7.23,7.59c2.06,0,3.56-.82,4.57-2.11v1.75h3.14v-7.23h0Zm-29.46,0c0,4.39,3.05,7.59,7.71,7.59,2.18,0,3.63-.49,5.2-1.72l-1.51-2.54c-1.18,.85-2.42,1.3-3.79,1.3-2.51-.03-4.36-1.84-4.36-4.63s1.85-4.6,4.36-4.63c1.36,0,2.6,.45,3.79,1.3l1.51-2.54c-1.57-1.24-3.02-1.73-5.2-1.73-4.66,0-7.71,3.21-7.71,7.59m40.53-7.59c-1.81,0-3,.85-3.81,2.12v-1.75h-3.11v14.46h3.15v-8.11c0-2.39,1.03-3.72,3.08-3.72,.67-.01,1.34,.11,1.97,.36l.97-2.96c-.7-.27-1.6-.39-2.24-.39m-84.27,1.51c-1.51-1-3.6-1.51-5.9-1.51-3.66,0-6.02,1.76-6.02,4.63,0,2.36,1.76,3.81,4.99,4.26l1.48,.21c1.72,.24,2.54,.7,2.54,1.51,0,1.12-1.15,1.76-3.3,1.76s-3.75-.69-4.81-1.51l-1.48,2.45c1.73,1.27,3.9,1.88,6.26,1.88,4.17,0,6.59-1.97,6.59-4.72,0-2.54-1.9-3.87-5.05-4.32l-1.48-.21c-1.36-.18-2.45-.45-2.45-1.42,0-1.06,1.03-1.69,2.75-1.69,1.85,0,3.63,.7,4.51,1.24l1.36-2.54h0Zm40.57-1.52c-1.82,0-3,.85-3.81,2.12v-1.76h-3.12v14.46h3.15v-8.11c0-2.39,1.03-3.72,3.08-3.72,.67-.01,1.34,.11,1.97,.36l.97-2.96c-.69-.27-1.6-.39-2.24-.39m-26.83,.36h-5.14v-4.39h-3.18v4.39h-2.93v2.87h2.93v6.6c0,3.35,1.3,5.35,5.02,5.35,1.36,0,2.93-.42,3.93-1.12l-.91-2.69c-.94,.54-1.97,.81-2.78,.81-1.57,0-2.08-.97-2.08-2.42v-6.53h5.14v-2.88Zm-47.01,14.46v-9.07c0-3.42-2.18-5.72-5.69-5.75-1.84-.03-3.75,.54-5.08,2.58-1-1.61-2.57-2.58-4.78-2.58-1.54,0-3.05,.45-4.24,2.15v-1.79h-3.15v14.46h3.17v-8.02c0-2.51,1.39-3.84,3.54-3.84s3.14,1.36,3.14,3.81v8.05h3.18v-8.02c0-2.51,1.45-3.84,3.54-3.84s3.17,1.36,3.17,3.81v8.05h3.19Z"/></g></g></g></g></svg>