<?xml version="1.0" encoding="UTF-8"?><svg xmlns="http://www.w3.org/2000/svg" viewBox="0 0 693.49 693.49"><defs><style>.d{fill:#fff;}</style></defs><g id="a"/><g id="b"><g id="c"><g><path class="d" d="M205.88,99.49l181.26,485.64-42.36,108.36h-13.79C210.81,402.89,92.6,84.72,92.6,84.72,65.02,13.79,33.49,12.81,0,12.81V0H264V12.81c-80.77,0-61.08,79.79-58.12,86.68M449.19,0h244.3V12.81c-65.02,0-88.66-.98-178.3,235.43l-11.82-3.94c30.54-91.61,87.67-231.49-54.18-231.49V0Z"/><path class="d" d="M543.59,692.23h-131.41v-6.41c21.9,0,43.8-2.14,43.8-41.68v-254.82c0-39-29.38-20.3-49.15-4.81l-4.27-5.88,82.27-67.31h17.63v332.82c0,41.14,22.44,41.68,41.13,41.68v6.41Z"/></g></g></g></svg>